HIERARCHY
ROOT hip
{
	OFFSET 0.000000 0.000000 0.000000 
	CHANNELS 6 Xposition Yposition Zposition Xrotation Zrotation Yrotation
	JOINT abdomen
	{
		OFFSET 0.000000 3.402643 0.000000 
		CHANNELS 3 Xrotation Zrotation Yrotation
		JOINT chest
		{
			OFFSET 0.000000 8.438565 -0.680529 
			CHANNELS 3 Xrotation Zrotation Yrotation
			JOINT neck
			{
				OFFSET 0.000000 10.207942 -0.272212 
				CHANNELS 3 Xrotation Zrotation Yrotation
				JOINT head
				{
					OFFSET 0.000000 3.130431 0.000000 
					CHANNELS 3 Xrotation Zrotation Yrotation
					End Site
					{
						OFFSET 0.000000 3.130435 0.000000 
					}
				}
			}
			JOINT lCollar
			{
				OFFSET 3.470700 6.669187 -0.816635 
				CHANNELS 3 Yrotation Zrotation Xrotation
				JOINT lShldr
				{
					OFFSET 3.198488 0.000000 0.000000 
					CHANNELS 3 Zrotation Yrotation Xrotation
					JOINT lForeArm
					{
						OFFSET 10.139888 0.000000 0.000000 
						CHANNELS 3 Yrotation Zrotation Xrotation
						JOINT lHand
						{
							OFFSET 8.370511 0.000000 0.000000 
							CHANNELS 3 Zrotation Yrotation Xrotation
							End Site
							{
								OFFSET 4.083176 0.000000 0.000000 
							}
						}
					}
				}
			}
			JOINT rCollar
			{
				OFFSET -3.470700 6.669187 -0.816635 
				CHANNELS 3 Yrotation Zrotation Xrotation
				JOINT rShldr
				{
					OFFSET -3.198488 0.000000 0.000000 
					CHANNELS 3 Zrotation Yrotation Xrotation
					JOINT rForeArm
					{
						OFFSET -10.139888 0.000000 0.000000 
						CHANNELS 3 Yrotation Zrotation Xrotation
						JOINT rHand
						{
							OFFSET -8.370511 0.000000 0.000000 
							CHANNELS 3 Zrotation Yrotation Xrotation
							End Site
							{
								OFFSET -4.083176 0.000000 0.000000 
							}
						}
					}
				}
			}
		}
	}
	JOINT lThigh
	{
		OFFSET 5.308129 -1.633274 1.361059 
		CHANNELS 3 Xrotation Zrotation Yrotation
		JOINT lShin
		{
			OFFSET -2.041588 -20.007561 0.000000 
			CHANNELS 3 Xrotation Zrotation Yrotation
			JOINT lFoot
			{
				OFFSET 0.000000 -19.190928 -1.224953 
				CHANNELS 3 Xrotation Yrotation Zrotation
				End Site
				{
					OFFSET 0.000000 -2.449906 4.627600 
				}
			}
		}
	}
	JOINT rThigh
	{
		OFFSET -5.308129 -1.633274 1.361059 
		CHANNELS 3 Xrotation Zrotation Yrotation
		JOINT rShin
		{
			OFFSET 2.041588 -20.007561 0.000000 
			CHANNELS 3 Xrotation Zrotation Yrotation
			JOINT rFoot
			{
				OFFSET 0.000000 -19.190928 -1.224953 
				CHANNELS 3 Xrotation Yrotation Zrotation
				End Site
				{
					OFFSET 0.000000 -2.449906 4.627600 
				}
			}
		}
	}
}
MOTION
Frames: 18
Frame Time: 0.033333
0.114335 22.222580 48.194942 89.682327 -2.923357 -6.004200 0.000000 0.000000 0.000000 -5.711845 -4.899657 5.458718 26.753937 -8.153645 -0.730586 -22.653509 4.150468 24.257654 -28.003716 29.997173 24.978926 -77.408920 -21.223461 -12.605238 -1.192450 110.700165 -45.664059 -4.450074 -5.207987 -60.520046 32.049992 -30.000000 24.994795 58.265877 22.789850 69.406883 -97.698059 4.765131 -116.059845 19.220428 -2.237923 -81.105118 -6.221708 26.148615 27.507448 102.486275 11.777355 -0.510922 -158.477982 -162.133377 176.656128 -16.629457 -30.318205 -8.621226 72.160843 -8.143340 3.864950 26.313221 15.410542 -0.692369 
-0.058017 22.336775 48.257259 90.210625 -3.134037 -6.504141 0.000000 0.000000 0.000000 -5.315026 -5.337977 5.364897 28.333836 -6.073900 -0.589881 -22.417305 4.774794 25.848677 -26.639376 29.997866 24.969526 -77.027702 -20.855156 -12.761880 -2.813309 110.856781 -45.003075 -4.146867 -5.570141 -60.535248 32.552731 -30.000000 25.000000 54.354439 19.450731 68.531815 -97.092972 7.328916 -112.460846 20.614355 -0.055217 -81.060188 -1.185469 26.887068 28.402800 85.174545 4.751103 -2.079595 -162.122650 -161.121658 169.385971 -7.334222 -29.785311 -8.814912 40.125839 -0.045725 2.615885 24.532578 18.269320 -0.084323 
-0.264492 22.791557 48.027599 94.882973 -3.401926 -7.044295 0.000000 0.000000 0.000000 -8.325789 -4.587897 5.544730 26.391214 -5.097471 -0.490689 -22.678690 6.120472 28.743734 -23.191324 29.996937 24.975954 -76.758148 -21.274893 -12.858399 -1.701573 109.544952 -47.701519 -3.474925 -7.338262 -60.558361 31.175634 -30.000000 25.000000 55.329338 20.485617 68.712425 -98.564484 7.405780 -112.531822 21.194054 -1.041758 -81.010773 -5.440703 25.904917 27.454464 68.683670 3.749308 -1.959456 22.384111 -19.804932 -4.990487 -15.956384 -26.638906 -7.167290 26.238016 0.790775 1.493103 26.651920 11.513878 -16.086397 
-0.130331 23.090231 47.468784 98.053886 -2.629440 -6.510918 0.000000 0.000000 0.000000 -10.658186 -4.325027 5.601649 24.616978 -3.876858 -0.401455 -22.401533 6.791502 31.359028 -21.818617 29.991398 24.988876 -77.754631 -22.545580 -12.446134 1.027998 107.169769 -52.433846 -3.066665 -9.073424 -60.667400 30.555185 -30.000000 25.000000 55.717716 20.342272 68.904999 -99.087738 7.561928 -112.255501 21.995375 -0.491938 -80.992065 -12.391983 22.024937 24.729568 55.611774 6.694509 -0.875144 18.755381 -18.158567 -0.642087 -27.068157 -26.677122 -6.601890 31.757217 -0.415437 1.737658 34.225922 7.770435 -32.944408 
0.078335 22.563942 47.265007 93.636047 -2.599253 -6.716222 0.000000 0.000000 0.000000 -6.944752 -3.614683 5.734014 25.165798 -3.144472 -0.352105 -22.630066 7.622826 33.904488 -21.853043 29.999052 24.986423 -78.712547 -21.811382 -12.078172 3.458152 105.832214 -55.600700 -2.328559 -9.903656 -60.910610 31.175634 -30.000000 25.000000 54.557274 19.951206 68.498596 -99.344543 6.951027 -111.833626 22.908415 0.916256 -80.917404 -8.232494 19.701929 24.138454 38.138641 4.888631 -0.450922 16.729179 -16.800468 0.853162 -20.654119 -27.850946 -7.409606 34.023735 -0.595856 1.896141 25.921663 9.904690 -21.695278 
0.131588 22.351450 47.299198 91.094154 -3.819844 -8.016594 0.000000 0.000000 0.000000 -4.746027 -1.922699 6.087100 26.545698 -2.363248 -0.303282 -22.101027 9.114385 34.947594 -21.526249 29.995346 24.972477 -78.567497 -20.687723 -12.167917 3.080169 105.099327 -55.279549 -1.992990 -10.760713 -60.973503 32.075275 -30.000000 25.000000 52.769615 20.498529 67.616493 -99.677834 6.808702 -110.339691 23.462208 1.380530 -80.875305 -4.347439 21.348932 25.234436 23.615711 -0.416672 -0.900429 32.603985 -17.027237 27.138721 -17.116335 -26.078667 -6.857021 36.626465 -1.978359 1.783124 21.566082 13.957015 -3.676792 
0.360880 22.531504 47.217640 93.464821 -3.409996 -8.442909 0.000000 0.000000 0.000000 -6.981887 -1.718589 6.145076 26.676632 -1.513657 -0.254076 -21.534042 9.978662 35.249065 -21.303499 29.989691 24.971537 -78.872551 -20.754419 -12.032016 0.898225 104.969704 -54.053886 -2.310549 -11.888145 -60.799091 31.934795 -30.000000 25.000000 52.405872 20.238415 67.527626 -99.038704 6.501521 -110.455849 23.090425 1.053782 -80.900330 -6.690091 20.964911 24.814919 25.786037 -0.694451 -1.072264 25.957701 -14.399037 27.982832 -22.226276 -25.888098 -6.530882 40.561680 -2.177417 2.172879 22.845934 13.590815 -3.679317 
0.643386 22.514305 47.344734 93.292816 -2.125335 -8.414328 0.000000 0.000000 0.000000 -6.585585 -2.661417 5.943769 26.527302 -2.421837 -0.322803 -20.982254 9.456073 34.937538 -21.189835 29.991053 24.988859 -79.171165 -20.107903 -11.938796 -1.715301 104.522568 -53.474083 -1.807924 -12.274362 -61.045349 32.514908 -30.000000 24.997362 53.150997 20.312017 67.844826 -99.074806 6.991534 -111.118332 22.331923 1.151909 -80.913383 -6.045343 18.847250 23.917645 30.276182 0.534766 -1.030908 14.707417 -12.889354 4.853972 -21.782841 -27.278437 -7.105390 37.409363 -0.244233 2.255248 22.515940 11.266004 -13.182868 
0.830754 22.522617 47.488068 92.982956 -0.502567 -8.242555 0.000000 0.000000 0.000000 -6.053760 -4.169454 5.609957 27.639738 -3.388597 -0.381925 -20.120018 8.112176 32.285744 -20.000599 29.994133 24.987387 -79.711060 -19.772432 -11.758521 -0.767818 104.193573 -55.233337 -1.076568 -12.318950 -61.347721 32.802788 -30.000000 25.000000 54.250023 21.341963 68.054520 -99.217010 7.275290 -112.164833 21.901566 1.258667 -80.930458 -7.275267 16.955811 23.046532 32.556469 2.540620 -0.711903 17.564444 -16.268734 -5.100417 -21.343306 -28.801153 -7.754263 33.169884 1.127301 2.198478 26.758207 7.737219 -27.521671 
0.923125 22.502052 47.558159 93.118523 0.309164 -8.378993 0.000000 0.000000 0.000000 -6.119021 -4.724288 5.506576 27.697458 -4.824043 -0.490658 -19.705563 8.551424 32.218147 -18.626465 29.993986 24.988607 -80.293320 -19.512167 -11.520138 0.156083 103.990944 -55.870502 -0.767832 -12.697984 -61.404419 32.843651 -30.000000 24.997660 55.861198 22.789724 68.392441 -99.505051 6.746457 -112.860802 21.598465 0.988690 -80.960968 -7.275362 16.139914 22.684757 30.930996 2.043566 -0.666069 18.905546 -15.030960 -0.048697 -22.264093 -29.333357 -7.903177 33.445297 1.381118 2.273976 28.048725 5.904006 -30.913006 
0.881968 22.451809 47.605553 92.687759 -0.077202 -8.818377 0.000000 0.000000 0.000000 -5.585491 -4.296013 5.581442 27.209530 -5.458744 -0.540248 -19.377300 8.833411 33.744152 -18.327415 29.998037 24.975925 -80.692833 -19.029051 -11.392710 -1.290846 103.649216 -54.833248 -0.937010 -13.354533 -61.321384 33.171806 -30.000000 24.999514 56.376637 23.327402 68.484138 -99.823158 6.821530 -112.684738 21.485168 1.148706 -80.961067 -5.674073 16.900831 23.103107 25.955341 0.906313 -0.722474 23.656313 -15.134912 18.723097 -21.659235 -28.689869 -7.669533 34.365494 1.215028 2.363368 26.037476 6.642174 -26.680147 
0.741736 22.457205 47.607525 92.687088 -1.176628 -9.035294 0.000000 0.000000 0.000000 -5.408536 -3.361759 5.780989 29.089663 -3.701072 -0.420937 -19.045773 9.120217 30.246109 -18.629545 29.993708 24.975060 -80.621948 -19.015537 -11.414989 -1.648762 103.431900 -54.723480 -0.802429 -13.563068 -61.373840 32.970901 -30.000000 25.000000 56.251255 23.261150 68.447823 -100.026031 6.950211 -112.016014 21.708179 1.415379 -80.934708 -5.234609 18.632389 23.892832 22.622593 0.458017 -0.601767 31.645031 -16.009666 27.593159 -21.259539 -27.196573 -7.085587 34.533451 0.751827 2.218236 25.423967 7.244320 -21.671162 
0.643553 22.456566 47.545593 93.004196 -1.727102 -8.881129 0.000000 0.000000 0.000000 -5.898266 -2.836503 5.895445 28.125191 -3.925671 -0.431354 -19.575607 8.664237 32.784203 -19.342815 29.992611 24.991476 -80.142265 -19.158548 -11.598845 -0.948503 103.170807 -55.155636 -0.304293 -13.375790 -61.566555 33.090240 -30.000000 25.000000 56.341225 22.952467 68.563179 -100.077843 7.060426 -111.437386 21.978731 1.489968 -80.922913 -5.596257 19.539137 24.231407 22.820808 0.750980 -0.535702 32.318253 -16.439213 23.907845 -21.267588 -26.734928 -6.877283 34.212395 0.712812 2.181816 24.742176 7.743563 -26.151930 
0.624838 22.418385 47.492561 92.761391 -1.660738 -8.616994 0.000000 0.000000 0.000000 -5.802892 -2.962888 5.876915 26.774578 -4.521339 -0.460635 -19.818413 8.246286 35.291843 -19.621729 29.998543 24.982466 -79.973572 -19.385420 -11.656507 -0.878781 102.936836 -54.965714 -0.329943 -13.453473 -61.538975 33.316177 -30.000000 25.000000 56.191387 22.389139 68.627724 -99.856796 7.103590 -112.007446 21.986332 1.238879 -80.945053 -5.430485 19.291903 24.165091 24.216112 0.975170 -0.615363 28.416443 -16.301096 23.870634 -20.757238 -27.355795 -7.174050 33.905403 0.947212 2.224022 25.148798 8.991932 -27.719219 
0.617643 22.423410 47.488838 92.718361 -1.661334 -8.480334 0.000000 0.000000 0.000000 -5.755558 -2.982369 5.867162 26.910511 -4.423686 -0.460630 -19.730927 8.338513 34.854977 -19.560204 29.992176 24.968239 -80.132156 -19.627167 -11.599211 -0.200543 102.895393 -55.401379 -0.257003 -13.611721 -61.545345 32.991318 -30.000000 24.997223 56.034355 22.041803 68.630341 -99.859482 6.768835 -112.055916 21.990366 0.888494 -80.940804 -5.498913 19.232359 24.126051 24.269697 0.897293 -0.583503 28.389301 -15.840049 23.410078 -20.737907 -27.512083 -7.236940 34.046658 0.722476 2.166934 25.640331 10.000124 -27.105188 
0.603772 22.412254 47.529610 92.483025 -1.767175 -8.568782 0.000000 0.000000 0.000000 -5.439562 -2.943460 5.876916 27.089277 -4.599449 -0.480107 -19.976795 8.268255 35.393604 -19.621729 29.998543 24.982466 -80.054688 -19.401186 -11.630567 -0.109087 102.856171 -56.491615 -0.626494 -13.611573 -61.476715 33.016457 -30.000000 25.000000 56.425831 22.408932 68.722084 -99.983261 6.777338 -111.839424 22.004360 0.971629 -80.931427 -5.177167 19.278070 24.193653 24.066002 0.477540 -0.668399 29.081703 -14.931864 23.966198 -20.457836 -27.292938 -7.179097 33.870544 0.746324 2.165284 25.842485 9.535789 -26.799860 
0.600113 22.395851 47.568890 92.212318 -1.756882 -8.705434 0.000000 0.000000 0.000000 -5.065166 -3.021333 5.847655 27.264271 -4.599455 -0.470373 -20.381577 8.245084 35.856663 -19.986929 30.000000 24.975279 -80.211761 -19.032484 -11.573698 -0.827923 102.592690 -57.489006 -1.136631 -13.602919 -61.404282 33.044693 -30.000000 24.997316 56.537117 22.678820 68.694328 -100.110832 6.934128 -111.715950 21.957125 1.055645 -80.945648 -4.785701 19.215628 24.167816 24.194355 0.213665 -0.782918 28.215715 -14.960148 26.995010 -19.986795 -27.210783 -7.145034 33.546684 0.917784 2.149361 25.374464 9.062284 -27.953413 
0.598952 22.404303 47.566784 92.254044 -1.776234 -8.695674 0.000000 0.000000 0.000000 -5.085213 -3.021280 5.857406 27.572660 -4.277212 -0.450881 -19.771952 8.398007 35.694992 -20.022102 29.996231 24.985941 -80.463959 -19.092428 -11.482689 0.139937 102.399391 -58.919296 -0.920943 -13.705056 -61.512764 32.904900 -30.000000 24.996410 56.521080 22.679155 68.704704 -100.084023 6.867070 -111.828972 21.830273 1.073185 -80.955811 -4.903455 19.232012 24.164667 24.361753 0.164831 -0.769605 27.861177 -15.186116 28.375921 -19.950583 -27.117777 -7.114749 33.475502 1.005713 2.189816 24.940817 8.608782 -28.277084 
